<svg width="200" height="34" viewBox="0 0 200 34" fill="none" xmlns="http://www.w3.org/2000/svg">
<path d="M11.9857 15.5239C-0.320328 9.93392 1.78281 2.29531 1.78281 2.29531C-0.998018 8.11559 4.72115 12.1375 8.66622 14.1153C9.75871 14.5989 10.8837 15.0734 11.9857 15.5239Z" fill="white"/>
<path d="M33.5074 33.3391L28.8706 5.83912H22.5968L15.9272 16.9244C18.1697 17.7888 19.9858 18.4258 20.7232 18.6886L24.5895 11.6466L27.4326 33.3391H33.5074Z" fill="white"/>
<path d="M25.7481 22.8316C25.4967 22.4646 25.2596 22.253 25.2596 22.253C25.1007 22.0555 24.9014 21.8688 24.6814 21.6952C23.6988 20.9221 22.3053 20.4191 22.3053 20.4191C22.3053 20.4191 13.3947 17.516 7.53342 14.6205C3.07126 12.4166 1.45242 10.4241 0.869465 9.19406C0.48942 8.39184 0.549958 7.91406 0.549958 7.91406C0.456348 8.14795 0.378432 8.37851 0.314531 8.60545C-0.127173 10.1827 0.136 11.5955 0.79239 12.8327C0.996146 13.2166 1.23746 13.583 1.50736 13.9327C1.52361 13.9538 1.54071 13.9746 1.55724 13.9957C2.70495 15.4546 4.34452 16.6082 5.78511 17.4305C7.49166 18.4043 8.91851 18.9132 8.91851 18.9132C8.91851 18.9132 21.1102 22.9896 22.1099 23.3413C22.7815 23.5774 23.8894 23.836 23.9174 24.7177C23.9308 25.1485 23.6865 25.7285 23.006 26.5268C20.9348 28.9588 22.759 31.3757 22.759 31.3757C22.8148 29.9082 23.0623 29.2446 25.3406 26.8005C25.7122 26.4016 25.9603 26.011 26.1158 25.638C26.6088 24.4502 26.1601 23.4324 25.7481 22.8316Z" fill="#346EBE"/>
<path d="M22.3784 24.5213C18.8265 22.7311 5.95238 20.2555 1.90166 16.2308C1.43445 15.7663 1.08411 15.2813 0.879793 14.7747C0.879793 14.7747 0.806642 17.5699 3.84644 19.5663C5.41034 20.5933 8.60373 21.6783 11.7094 22.618C11.9353 22.6866 12.1603 22.7538 12.3848 22.8208L6.7136 32.2405C6.23153 33.0686 5.00479 33.3391 5.00479 33.3391H6.15362H6.63007H12.6362L17.6262 24.3322C17.6589 24.3419 17.6923 24.3569 17.7248 24.3666C17.8649 24.4088 17.9984 24.4524 18.1259 24.4916C18.3902 24.5733 18.6256 24.6505 18.826 24.7191C18.826 24.7191 19.7576 24.9916 20.5768 25.3872C21.21 25.6938 21.7887 26.1358 21.805 26.5236C21.805 26.5236 22.0914 26.0452 22.3661 25.7188C22.3661 25.7188 23.0508 24.8599 22.3784 24.5213Z" fill="white"/>
<path d="M36.5771 33.3391H41.3417V5.83912H36.5771V33.3391Z" fill="white"/>
<path d="M54.234 26.7875C54.234 27.0961 54.2567 27.4825 54.1398 27.8303C53.7113 29.1817 52.3394 30.4175 50.4299 30.4175C48.91 30.4175 47.6558 29.5681 47.6558 27.7142C47.6558 24.8561 50.8708 24.1225 54.234 24.1997V26.7875ZM58.9986 22.0756C58.9986 17.9817 57.2626 14.1578 51.1835 14.1578C48.183 14.1578 45.7368 14.9689 44.334 15.8186L45.2735 18.9083C46.5597 18.0978 48.5067 17.5183 50.3772 17.5183C53.7284 17.5183 54.234 19.5653 54.234 20.8011V21.11C47.2273 21.0714 42.9756 23.4661 42.9756 28.2167C42.9756 31.0747 45.1205 33.8608 48.9394 33.8608C51.3943 33.8608 53.3834 32.7836 54.5524 31.3947H54.6693L54.9812 33.3392H59.3066C59.1115 32.2281 58.9986 30.5722 58.9986 28.8731V22.0756Z" fill="white"/>
<path d="M66.0869 18.0613H65.9311L65.7753 14.4502H61.6057C61.7226 16.3947 61.8013 18.0977 61.8013 20.6466V33.3391H66.5659V23.6591C66.5659 23.1183 66.6382 22.6158 66.7161 22.1911C67.1447 20.0672 68.7265 18.5994 71.0256 18.5994C71.6102 18.5994 71.891 18.6766 72.4516 18.7541V14.2738C71.891 14.1969 71.7632 14.1011 71.2957 14.1011C69.2691 14.1011 67.0222 15.5613 66.0869 18.0613Z" fill="white"/>
<path d="M91.2286 10.8738L86.429 23.7731H96.0457L91.2286 10.8738ZM89.2316 7.41895H93.243L103.21 33.3391H99.5315L97.1493 26.6898H85.3604L82.9782 33.3391H79.2471L89.2316 7.41895Z" fill="white"/>
<path d="M99.5574 13.8945H102.973L109.104 30.214L115.235 13.8945H118.651L111.294 33.339H106.914L99.5574 13.8945Z" fill="white"/>
<path d="M120.183 13.8946H123.406V33.3391H120.183V13.8946ZM120.183 6.3252H123.406V10.3703H120.183V6.3252Z" fill="white"/>
<path d="M136.149 23.5647C133.545 23.5647 131.74 23.8598 130.736 24.4501C129.732 25.0404 129.23 26.0473 129.23 27.4709C129.23 28.6052 129.603 29.508 130.351 30.1793C131.11 30.839 132.137 31.1688 133.434 31.1688C135.22 31.1688 136.651 30.5438 137.725 29.2938C138.811 28.0323 139.354 26.3598 139.354 24.2765V23.5647H136.149ZM142.578 22.2452V33.339H139.354V30.3876C138.619 31.5681 137.702 32.442 136.604 33.0091C135.507 33.5647 134.164 33.8424 132.575 33.8424C130.567 33.8424 128.967 33.2869 127.776 32.1758C126.596 31.0531 126.007 29.5543 126.007 27.6793C126.007 25.4918 126.742 23.8424 128.214 22.7313C129.697 21.6202 131.904 21.0647 134.835 21.0647H139.354V20.7522C139.354 19.2823 138.864 18.148 137.883 17.3494C136.914 16.5392 135.547 16.1341 133.784 16.1341C132.663 16.1341 131.571 16.2672 130.508 16.5334C129.446 16.7996 128.424 17.1989 127.443 17.7313V14.7799C128.622 14.3286 129.767 13.9929 130.876 13.773C131.986 13.5415 133.066 13.4258 134.117 13.4258C136.955 13.4258 139.074 14.1549 140.475 15.6133C141.877 17.0716 142.578 19.2823 142.578 22.2452Z" fill="white"/>
<path d="M149.487 8.37378V13.8946H156.126V16.3773H149.487V26.9328C149.487 28.5185 149.704 29.537 150.136 29.9884C150.579 30.4398 151.473 30.6654 152.816 30.6654H156.126V33.3391H152.816C150.328 33.3391 148.612 32.8819 147.666 31.9675C146.72 31.0416 146.247 29.3634 146.247 26.9328V16.3773H143.882V13.8946H146.247V8.37378H149.487Z" fill="white"/>
<path d="M157.448 13.8945H160.672V33.339H157.448V13.8945Z" fill="white"/>
<path d="M172.101 13.4258C170.152 13.4258 168.494 13.8595 167.127 14.7257L169.513 16.7804C170.259 16.3498 171.122 16.1341 172.101 16.1341C173.818 16.1341 175.178 16.8112 176.182 18.1654C177.187 19.508 177.689 21.3309 177.689 23.6341C177.689 25.9489 177.187 27.7776 176.182 29.1202C175.178 30.4628 173.818 31.1341 172.101 31.1341C170.361 31.1341 168.989 30.4686 167.985 29.1376C166.992 27.795 166.496 25.9605 166.496 23.6341C166.496 21.3077 166.998 19.479 168.002 18.148C168.319 17.725 168.671 17.3692 169.059 17.0794L166.013 15.5881C165.828 15.7601 165.65 15.9416 165.48 16.1341C163.892 17.9397 163.097 20.4397 163.097 23.6341C163.097 26.817 163.892 29.317 165.48 31.1341C167.08 32.9397 169.287 33.8424 172.101 33.8424C174.904 33.8424 177.105 32.9397 178.705 31.1341C180.305 29.317 181.105 26.817 181.105 23.6341C181.105 20.4397 180.305 17.9397 178.705 16.1341C177.105 14.3286 174.904 13.4258 172.101 13.4258Z" fill="white"/>
<path d="M199.838 21.6029V33.339H196.615V21.707C196.615 19.8668 196.253 18.4894 195.529 17.5751C194.805 16.6607 193.719 16.2036 192.271 16.2036C190.531 16.2036 189.159 16.7533 188.155 17.8529C187.15 18.9524 186.648 20.4512 186.648 22.3494V33.339H183.407V13.8945H186.648V16.9154C187.419 15.7464 188.324 14.8725 189.363 14.2938C190.414 13.7151 191.623 13.4258 192.989 13.4258C195.243 13.4258 196.948 14.1202 198.104 15.5091C199.26 16.8864 199.838 18.9177 199.838 21.6029Z" fill="white"/>
<path d="M169.861 17.4667C170.132 17.5692 170.286 17.625 170.286 17.625C167.162 16.1572 164.762 14.57 162.92 12.9706C161.838 12.0317 160.95 11.0883 160.22 10.1625C159.23 8.90778 158.533 7.68556 158.047 6.54972C156.466 2.86306 157.096 0.0902824 157.096 0.0902824C155.544 2.32417 154.05 8.42612 158.313 11.5922C160.47 13.1939 163.318 14.6483 165.695 15.7283C166.845 16.2506 167.884 16.6853 168.682 17.0058C169.181 17.2064 169.583 17.3617 169.861 17.4667Z" fill="#346EBE"/>
</svg>
